<?xml version="1.0" standalone="no"?>
<!DOCTYPE svg PUBLIC "-//W3C//DTD SVG 1.1//EN" "http://www.w3.org/Graphics/SVG/1.1/DTD/svg11.dtd" >
<!--
2013-9-30: Created.
-->
<svg>
<metadata>
Created by iconfont
</metadata>
<defs>

<font id="iconfont" horiz-adv-x="1024" >
  <font-face
    font-family="iconfont"
    font-weight="500"
    font-stretch="normal"
    units-per-em="1024"
    ascent="896"
    descent="-128"
  />
    <missing-glyph />
    
    <glyph glyph-name="x" unicode="x" horiz-adv-x="1001"
d="M281 543q-27 -1 -53 -1h-83q-18 0 -36.5 -6t-32.5 -18.5t-23 -32t-9 -45.5v-76h912v41q0 16 -0.5 30t-0.5 18q0 13 -5 29t-17 29.5t-31.5 22.5t-49.5 9h-133v-97h-438v97zM955 310v-52q0 -23 0.5 -52t0.5 -58t-10.5 -47.5t-26 -30t-33 -16t-31.5 -4.5q-14 -1 -29.5 -0.5
t-29.5 0.5h-32l-45 128h-439l-44 -128h-29h-34q-20 0 -45 1q-25 0 -41 9.5t-25.5 23t-13.5 29.5t-4 30v167h911zM163 247q-12 0 -21 -8.5t-9 -21.5t9 -21.5t21 -8.5q13 0 22 8.5t9 21.5t-9 21.5t-22 8.5zM316 123q-8 -26 -14 -48q-5 -19 -10.5 -37t-7.5 -25t-3 -15t1 -14.5
t9.5 -10.5t21.5 -4h37h67h81h80h64h36q23 0 34 12t2 38q-5 13 -9.5 30.5t-9.5 34.5q-5 19 -11 39h-368zM336 498v228q0 11 2.5 23t10 21.5t20.5 15.5t34 6h188q31 0 51.5 -14.5t20.5 -52.5v-227h-327z" />
    

    
    <glyph glyph-name="pt-about" unicode="&#58972;" d="M512 896C229.7 896 0 666.3 0 384s229.7-512 512-512 512 229.7 512 512S794.3 896 512 896z m0-960C264.6-64 64 136.6 64 384S264.6 832 512 832s448-200.6 448-448-200.6-448-448-448zM512 160m-64 0a64 64 0 1 1 128 0 64 64 0 1 1-128 0ZM478.2 310c1-12.4 11.4-22 23.9-22h19.8c12.5 0 22.9 9.6 23.9 22l28 336c1.2 14-9.9 26-23.9 26h-75.8c-14 0-25.1-12-23.9-26l28-336z"  horiz-adv-x="1024" />

    
    <glyph glyph-name="pt-account" unicode="&#58973;" d="M896 640.3h-55l10.8 8.8c21.8 17.9 25 49.9 7 71.6L728.9 877.5C718.8 889.7 704.2 896 689.5 896c-11.4 0-22.9-3.8-32.4-11.6L505.3 760 401.7 835.1c-9 6.5-19.3 9.6-29.5 9.6-15.9 0-31.6-7.6-41.4-21.8L204.9 640.1l-76.9-0.1C57.3 640 0 582.7 0 512.1V0c0-70.7 57.3-128 128-128h768c70.7 0 128 57.3 128 128V512.2c0 70.7-57.3 128.1-128 128.1zM669.8 829.1c4.7 3.9 10.5 5.8 16.2 5.8 7.4 0 14.7-3.2 19.7-9.3L803 707.9c9-10.8 7.4-26.8-3.4-35.8l-38.9-31.9H439.4L669.8 829.1z m-312.2-57.3c4.9 7.1 12.7 10.9 20.7 10.9 5.1 0 10.2-1.6 14.7-4.8l71.4-51.5-105.2-86.1h-92l90.4 131.5zM960 128.1H736c-17.3 0-32 17.5-32 38.4V345.6c0 21.2 14.4 38.5 32 38.5h224v-256z m0 320H736c-53 0-96-45.9-96-102.5v-179.1c0-56.5 43-102.4 96-102.4h224V0c0-35.3-28.7-64-64-64H128c-35.3 0-64 28.7-64 64V512.1c0 35.3 28.7 63.9 64 63.9l77 0.1h33.6l0.1 0.1h22l-0.1-0.1h523l0.2 0.1H896c35.3 0 64-28.7 64-64v-64.1z m-128-240c26.6 0 48 21.5 48 48s-21.4 48-48 48c-26.5 0-48-21.5-48-48s21.5-48 48-48"  horiz-adv-x="1024" />

    
    <glyph glyph-name="pt-alipay" unicode="&#58974;" d="M844 896H180C80.6 896 0 815.4 0 716v-664c0-99.4 80.6-180 180-180h664c90.2 0 164.9 66.4 178 152.9-66.3 29.3-132.6 58.7-198.9 88.2-61.5 27.3-123 54.6-184.3 82.3-7.9 3.6-12.1 2.9-18.1-3.8-64.1-71.2-139.7-125.2-233.1-150.7-67.9-18.5-135.8-19.4-201.7 8.8-51.4 22-88.2 58.4-104.7 112.9-11.4 37.7-8.6 75.3 4.6 112.2 25.5 71.8 80.5 104.8 152.4 114.6 55.2 7.5 110.2 3.3 165-5.8 62.3-10.3 123.1-26.5 182.5-48 6.2-2.3 8.8 1.1 10.8 5.1 7 14.1 14.6 28.1 20.2 42.9 9.5 25.1 17.7 50.6 26.3 76 0.8 2.5 1.2 5.1 2.2 9.7H254.5v39.6h191v75.7H211.9v41.6h234.4c0.2 3.1 0.4 5.9 0.4 8.8 0.2 28.5 0.7 56.9 0.5 85.4-0.1 9.7 3.4 16.4 12.6 19 7.9 2.2 16.1 4.4 24.2 4.5 25.5 0.4 51-0.1 76.5-0.3 2.1 0 4.2-0.4 6.7-0.6v-118.7h254.7v-41.4H567.3v-75.1h207.6C758.3 433 726.8 366.3 693.6 299c9.7-3.4 18.9-6.7 28.2-9.9l302.1-102.6V716C1024 815.4 943.4 896 844 896zM271.9 325c-43.6 1.3-83.5-10-118-37.1-49.6-38.9-49.1-109.9 0.7-147.7 45.6-34.7 97.1-47.1 153.7-40.7 66.8 7.6 124.3 34.9 173 81 20.9 19.8 38.9 42 54 67.6-2.7 1.7-4.5 2.9-6.3 4-6.7 3.9-13.4 7.9-20.3 11.5-74.1 39.3-153.3 58.9-236.8 61.4z"  horiz-adv-x="1024" />

    
    <glyph glyph-name="pt-coupon" unicode="&#58975;" d="M131.1 832h761.8v-862.5L542.2 114.9l-26.5 11-26.7-10.8-357.9-145.9V832zM64 896v-1023.8l451.4 184L960-128V896H64z m286.7-526.3l-14-102.6c-3.4-24.9 7.2-49.6 27.3-63.7 10.8-7.6 23.4-11.4 36-11.4 10.8 0 21.7 2.8 31.5 8.4l87.4 51 90.3-45.5c8.9-4.5 18.6-6.7 28.1-6.7 13.9 0 27.7 4.7 39.2 13.8 19.3 15.3 28.4 40.6 23.6 65.2l-20 101.5 69.9 74.5c16.9 18.1 22.4 44.5 14.2 68.1-8.2 23.7-28.7 40.5-52.9 43.3l-99.8 11.8-47.2 91.6c-11.1 21.6-32.9 35-56.5 35h-1.9c-24.3-0.7-46.1-15.7-56.3-38.5l-41.7-94.2-98.9-18c-24-4.3-43.5-22.4-50.3-46.4-6.8-24.1 0.2-50.1 18.1-67.1l73.9-70.1z m101.4 142.6L507.8 638l62.9-122L704 500.2l-93.3-99.4 26.6-135.6-120.5 60.7-116.8-68 18.7 136.9-98.7 93.5 132.1 24z"  horiz-adv-x="1024" />

    
    <glyph glyph-name="pt-complate" unicode="&#58976;" d="M512 896C229.2 896 0 666.8 0 384s229.2-512 512-512 512 229.2 512 512S794.8 896 512 896z m249.7-380.7L454.3 207.9c-6.2-6.2-16.4-6.2-22.6 0L262.3 377.3c-6.2 6.2-6.2 16.4 0 22.6l23 23c5.6 5.6 14.4 6.3 20.7 1.6l126.7-92.4c6-4.4 14.2-4.1 19.9 0.8l265.1 228c6.3 5.5 15.8 5.1 21.7-0.8l22.2-22.2c6.3-6.2 6.3-16.4 0.1-22.6z"  horiz-adv-x="1024" />

    
    <glyph glyph-name="pt-balance" unicode="&#58977;" d="M798.2 673.5l44.5 36.5c12.3 10.3 14.2 28.6 3.9 40.9L735.4 885.4C729.7 892.3 721.3 896 712.9 896c-6.5 0-13.1-2.2-18.5-6.6L431 673.5h367.2zM459.6 772L378 830.9c-5.1 3.7-11 5.5-16.8 5.5-9.1 0-18.1-4.3-23.7-12.5L234.2 673.6h105.1L459.6 772zM952.9 603.7H824.6l-0.2-0.1H226.7l0.1 0.1h-25.1l-0.1-0.1h-38.4l-88-0.1c-40.3 0-73.1-32.7-73.1-73v-585.3c0-40.3 32.8-73.1 73.1-73.1h877.7c40.3 0 73.1 32.8 73.1 73.1v73.3H770c-60.6 0-109.7 52.5-109.7 117V340.1c0 64.7 49.1 117.1 109.7 117.1h256v73.3c0 40.4-32.8 73.2-73.1 73.2zM733.4 340.1v-204.7c0-23.9 16.8-43.9 36.6-43.9h256V384.1H770c-20.1 0-36.6-19.8-36.6-44z m146.3-47.4c30.4 0 54.9-24.6 54.9-54.9S910.1 183 879.7 183c-30.3 0-54.9 24.6-54.9 54.9s24.6 54.8 54.9 54.8z"  horiz-adv-x="1026" />

    
    <glyph glyph-name="pt-cpwd" unicode="&#58978;" d="M864 495.5V544C864 737.5 705.6 896 512 896S160 737.5 160 544v-48.5C101.4 441 64 364 64 278.1v-108.3C64 6 198-128 361.9-128h300.3C826-128 960 6 960 169.8V278.1c0 85.9-37.4 162.9-96 217.4zM224 544c0 158.8 129.2 288 288 288s288-129.2 288-288v-3.6c-41.4 22-87.9 35.6-137.9 35.6H361.9c-49.9 0-96.4-13.6-137.9-35.6V544z m672-374.2c0-129-104.9-233.8-233.9-233.8H361.9C232.9-64 128 40.8 128 169.8V278.1C128 407 232.9 512 361.9 512h300.3c129 0 233.9-105 233.9-233.9v-108.3zM512 368c-79.6 0-144-64.5-144-144 0-68.5 47.9-125.6 112-140.1V48c0-17.7 14.3-32 32-32s32 14.3 32 32v35.9c64.1 14.5 112 71.6 112 140.1 0 79.5-64.4 144-144 144m0-224c-44.1 0-80 35.9-80 80s35.9 80 80 80 80-35.9 80-80-35.9-80-80-80"  horiz-adv-x="1024" />

    
    <glyph glyph-name="pt-del" unicode="&#58979;" d="M928 768H736V800c0 52.9-43.1 96-96 96H384c-52.9 0-96-43.1-96-96v-32H96c-52.9 0-96-43.1-96-96 0-17.7 14.3-32 32-32s32 14.3 32 32c0 17.6 14.3 32 32 32h832c17.7 0 32-14.4 32-32 0-17.7 14.3-32 32-32s32 14.3 32 32c0 52.9-43.1 96-96 96zM352 800c0 17.6 14.3 32 32 32h256c17.7 0 32-14.4 32-32v-32H352V800z m544-160H128c-9 0-17.6-3.8-23.7-10.4-6-6.7-9-15.5-8.3-24.4l104-704c1.5-16.5 15.4-29.1 31.9-29.1h560c16.5 0 30.3 12.6 31.9 29.1l104 704c0.8 9-2.2 17.8-8.3 24.4-5.9 6.6-14.5 10.4-23.5 10.4zM762.8-64H261.2L163 576h698l-98.2-640z m-113.1 64.1c-17.6 1.3-30.9 16.6-29.6 34.2l52 448c1.3 17.7 15.9 31.3 34.2 29.7 17.7-1.2 30.9-16.6 29.6-34.2l-52-448c-1.2-16.9-15.2-29.8-31.9-29.8-0.7 0-1.5 0-2.3 0.1zM372 0c-16.6 0-30.7 12.9-31.9 29.8l-52 448c-1.3 17.6 12 32.9 29.6 34.2 17.5 1.8 32.9-12 34.2-29.7l52-448c1.3-17.6-12-32.9-29.6-34.2-0.8-0.1-1.6-0.1-2.3-0.1z m140 0c-17.7 0-32 14.3-32 32V480c0 17.7 14.3 32 32 32s32-14.3 32-32v-448c0-17.7-14.3-32-32-32z"  horiz-adv-x="1024" />

    
    <glyph glyph-name="pt-camera" unicode="&#58980;" d="M587 756c22.4 0 43.5-8.7 59.4-24.6l90.5-90.5c8.3-8.3 19.4-12.9 31.1-12.9h160c28.7 0 52-23.3 52-52v-512c0-28.7-23.3-52-52-52H96c-13.9 0-26.9 5.4-36.8 15.2C49.4 37.1 44 50.1 44 64V576c0 28.7 23.3 52 52 52h160c11.7 0 22.9 4.6 31.1 12.9l90.5 90.5c15.9 15.9 37 24.6 59.4 24.6h150m0 44H437c-33.9 0-66.5-13.5-90.5-37.5L256 672H96c-53 0-96-43-96-96v-512c0-53 43-96 96-96h832c53 0 96 43 96 96V576c0 53-43 96-96 96H768l-90.5 90.5c-24 24-56.6 37.5-90.5 37.5zM512 436c31 0 60.1-12.1 82-34s34-51 34-82-12.1-60.1-34-82-51-34-82-34-60.1 12.1-82 34-34 51-34 82 12.1 60.1 34 82 51 34 82 34m0 44c-88.4 0-160-71.6-160-160s71.6-160 160-160 160 71.6 160 160-71.6 160-160 160zM512 532c56.6 0 109.9-22.1 149.9-62.1S724 376.6 724 320s-22.1-109.9-62.1-149.9S568.6 108 512 108s-109.9 22.1-149.9 62.1S300 263.4 300 320s22.1 109.9 62.1 149.9S455.4 532 512 532m0 44c-141.4 0-256-114.6-256-256s114.6-256 256-256 256 114.6 256 256-114.6 256-256 256z"  horiz-adv-x="1024" />

    
    <glyph glyph-name="pt-event" unicode="&#58981;" d="M672 896c-83.4 0-159-30.3-219.3-78.8C420.7 826.7 387 832 352 832 157.6 832 0 674.4 0 480c0-164 112.3-301.3 264-340.4v-75.5c0-13.2 10.8-24 24-24h38.8c-0.1-0.6-0.3-1.1-0.3-1.6v-44.9c0-14 11.5-25.5 25.6-25.5 14.1 0 25.6 11.5 25.6 25.5v44.9c0 0.5-0.3 1-0.3 1.6H416c13.2 0 24 10.8 24 24v75.5c49.9 12.9 95.7 36 134.5 67.6 3.1-0.8 6.3-1.7 9.5-2.6v-76.5c0-13.2 10.8-24 24-24h38.5c-0.1-0.6-0.3-1.1-0.3-1.6v-76.9c0-14 11.5-25.5 25.6-25.5 14 0 25.5 11.5 25.5 25.5v76.9c0 0.5-0.3 1-0.3 1.6h39c13.2 0 24 10.8 24 24v75.5C911.7 242.7 1024 380 1024 544 1024 738.4 866.4 896 672 896zM392 88.1h-80v42.3c13.2-1.5 26.5-2.4 40-2.4s26.8 1 40 2.4v-42.3zM352 192C193.2 192 64 321.2 64 480s129.2 288 288 288 288-129.2 288-288-129.2-288-288-288z m360-39.9h-80v43.5c13.2-1.6 26.4-3.6 40-3.6 13.5 0 26.8 1 40 2.4v-42.3zM672 256c-15.5 0-30.4 1.9-45.2 4.4C675 320.6 704 396.9 704 480c0 132.7-73.5 248.2-182 308.1C565.8 815.3 616.8 832 672 832c158.8 0 288-129.2 288-288S830.8 256 672 256zM315.5 712.8v-1c2.3-6.4 1.2-13.6-3.2-18.9-3.6-4-8.3-7-13.4-8.7-66.8-26.1-120.6-77.4-150-142.7-3.2-9.5-12-15.7-21.8-15.7-1.7 0-3.4 0.2-5.1 0.6h-2.8c-10.4 4.9-12.9 15.6-6.5 28.4 33.9 76.5 96.6 136.5 174.3 167.3 3.3 1.3 6.8 2.1 10.5 2.2h0.7c7.6 0 14.4-4.6 17.3-11.5z m270-285.1c10.3-4.9 12.9-15.6 6.5-28.4-34-76.5-96.6-136.5-174.3-167.3-3.3-1.3-6.8-2.1-10.5-2.2h-0.8c-7.5 0-14.3 4.5-17.2 11.5v1c-2.4 6.4-1.2 13.6 3.1 18.8 3.7 4 8.3 7 13.4 8.8 66.8 26.1 120.6 77.4 150.1 142.7 3.1 9.5 12 15.7 21.7 15.7 1.7 0 3.4-0.2 5.1-0.6h2.9zM864-64c17.6 0 32-14.5 32-32 0-17.6-14.4-32-32-32H416c-17.6 0-32 14.4-32 32 0 17.5 14.4 32 32 32h448z m-576 0c17.6 0 32-14.5 32-32 0-17.6-14.4-32-32-32H160c-17.6 0-32 14.4-32 31.9 0 17.6 14.4 32.1 32 32.1h128z"  horiz-adv-x="1024" />

    
    <glyph glyph-name="pt-fee" unicode="&#58982;" d="M864.4 338.1C890 389.7 905 447.2 905 508.6 905 722.4 729.2 896 511.9 896 294.9 896 119 722.4 119 508.6c0-61.4 14.7-118.9 40.5-170.5L0 65.7s101.1-20.2 203.8-41.3C272.3-52 340.4-128 340.4-128L487 122.4c8.4-0.4 16.6-1.2 25-1.2 8.5 0 16.8 0.8 25 1.2L683.6-128s68.1 76 136.5 152.3c102.5 21.1 203.8 41.3 203.8 41.3L864.4 338.1zM511.9 735.9c-123.5 0-223.9-100.2-223.9-224s100.4-224 223.9-224c123.8 0 223.9 100.2 223.9 224s-100.1 224-223.9 224m0-384c-88.3 0-159.7 71.7-159.7 160.1s71.4 160 159.7 160 160-71.7 160-160.1-71.7-160-160-160m0-164.7C333 187.2 188 332.7 188 512.1c0 179.3 145 324.7 323.9 324.7 178.9 0 324-145.5 324-324.7 0-179.4-145.1-324.9-324-324.9zM332.7-11.9s-49 46.7-95.2 91.6c-65.5 18.7-131.6 37.6-131.6 37.6l92.7 158.3C252 205.9 328.8 154.7 417.5 133l-84.8-144.9z m453.9 91.6c-46.3-44.9-95.4-91.6-95.4-91.6L606.5 133c88.8 21.7 165.4 72.9 218.8 142.6l92.9-158.3c-0.1-0.1-66.2-18.9-131.6-37.6z"  horiz-adv-x="1024" />

    
    <glyph glyph-name="pt-female" unicode="&#58983;" d="M768 896H256C114.6 896 0 781.4 0 640v-512c0-141.4 114.6-256 256-256h512c141.4 0 256 114.6 256 256V640C1024 781.4 909.4 896 768 896z m192-768c0-105.9-86.1-192-192-192H256c-105.9 0-192 86.1-192 192V640c0 105.9 86.1 192 192 192h512c105.9 0 192-86.1 192-192v-512zM512 736c-141.4 0-256-114.6-256-256 0-130.7 98.2-237.2 224.6-252.8-0.1-1.2-0.6-2-0.6-3.2v-64h-64c-17.7 0-32-14.3-32-32s14.3-32 32-32h64v-64c0-17.7 14.3-32 32-32s32 14.3 32 32v64h64c17.7 0 32 14.3 32 32s-14.3 32-32 32h-64v64c0 1.2-0.5 2-0.6 3.2C669.8 242.8 768 349.3 768 480c0 141.4-114.6 256-256 256"  horiz-adv-x="1024" />

    
    <glyph glyph-name="pt-filter" unicode="&#58984;" d="M944.94792 832L730.44792 508.3h-95.2v-547.6L389.14792 206.9V508.3h-95.6L79.14792 832h865.8m32.7 64H46.54792c-17.1 0-32.9-9.4-41-24.5-8.1-15.1-7.3-33.4 2.2-47.7l237.5-358.6c8.6-13 23.2-20.9 38.8-20.9h41v-244.6c0-12.4 4.9-24.2 13.6-32.9l281.1-281.1c8.9-8.9 20.9-13.6 33-13.6 6 0 12 1.2 17.8 3.5 17.4 7.2 28.7 24.2 28.7 43V444.3h40.6c15.6 0 30.2 7.9 38.8 20.9l236.2 356.6c5.8 7.8 9.2 17.4 9.2 27.7 0 25.6-20.7 46.5-46.4 46.5z m-0.2-46.5h0.2-0.2z m0-46.6h0.2-0.2z"  horiz-adv-x="1024" />

    
    <glyph glyph-name="pt-identify" unicode="&#58985;" d="M916.8 714.3c-26.3 2-51.5 7.9-75.7 18-47.6 19.8-91.7 46-134.9 73.4-51.5 32.5-105.3 60.7-162 83.6C533.5 893.7 522.7 896 512 896c-10.7 0-21.5-2.3-32.2-6.7-56.7-23-110.5-51.1-162-83.6-43.3-27.4-87.3-53.5-134.9-73.4-24.2-10.1-49.4-16-75.7-18-25.6-1.9-44.1-20.6-43.1-45.4 1.2-29.2 2.9-58.4 6.8-87.3 6.4-48 13.2-96.1 22.5-143.7 14.8-75.7 39.1-148.7 72.5-218.7 38.1-79.9 88.4-151.9 152.2-214.5 51-50 108.7-91.7 171.6-126.7 7.4-4.1 14.9-6 22.4-6 7.5 0 15 1.9 22.4 6 62.9 35 120.6 76.7 171.6 126.7 63.9 62.6 114.1 134.6 152.2 214.5 33.4 70 57.6 143 72.5 218.7 9.3 47.6 16.1 95.6 22.5 143.7 3.9 28.9 5.6 58.2 6.8 87.3 0.8 24.8-17.7 43.5-43.3 45.4z m-12.8-81c-1-25.5-2.6-51.1-5.9-76.4-5.6-42-11.5-84.1-19.7-125.7-13-66.2-34.2-130.1-63.4-191.4-33.3-69.9-77.3-132.9-133.2-187.7-44.6-43.7-95.1-80.3-150.1-110.8-6.4-3.6-12.9-5.3-19.4-5.3h-0.4c-6.5 0-13 1.7-19.4 5.3-55 30.6-105.5 67.1-150.1 110.8-55.9 54.8-99.9 117.8-133.2 187.7-29.2 61.3-50.4 125.2-63.4 191.4-8.2 41.6-14.1 83.7-19.7 125.7-3.4 25.3-4.9 50.9-5.9 76.4-0.9 21.7 15.3 38.1 37.7 39.8 23 1.7 45.1 6.9 66.2 15.7 41.7 17.4 80.2 40.3 118.1 64.2 45 28.5 92.1 53.1 141.7 73.2C493.2 830 502.6 832 512 832c9.4 0 18.8-2 28.2-5.8 49.6-20.1 96.7-44.7 141.7-73.2 37.9-23.9 76.4-46.8 118.1-64.2 21.1-8.8 43.2-14 66.2-15.7 22.4-1.7 38.6-18.1 37.8-39.8zM647.7 698.9c-42.8 27.1-87.1 49.9-131.5 67.9-1.7 0.7-3.2 1.1-4.2 1.2-1-0.1-2.5-0.5-4.2-1.1-44.5-18-88.7-40.9-131.5-67.9-38.5-24.4-80.6-49.6-127.7-69.2-20.3-8.5-41.6-14.5-63.5-17.9 0.9-14.7 2.2-30.8 4.3-46.5 5-37.2 10.9-80.4 19.1-121.8 11.9-60.5 31.5-119.8 58.4-176.2C297.6 203 338 145.9 387.1 97.8c35.8-35.1 77.8-66.7 124.9-94 47.1 27.4 89.1 59 124.9 94C686 145.9 726.4 203 757.1 267.4c26.9 56.4 46.5 115.7 58.4 176.2 8.1 41.4 14.1 84.6 19.1 121.8 2.1 15.7 3.4 31.8 4.3 46.5-21.9 3.4-43.1 9.4-63.5 17.9-47 19.5-89.2 44.8-127.7 69.1z m46.2-232.5l-174-206c-6.3-7.5-15.4-11.4-24.5-11.4-7.3 0-14.6 2.5-20.6 7.5l-125 105c-13.5 11.4-15.3 31.6-3.9 45.1s31.6 15.3 45.1 3.9L491.6 326 645 507.6c11.4 13.5 31.6 15.2 45.1 3.8 13.6-11.4 15.3-31.5 3.8-45z"  horiz-adv-x="1024" />

    
    <glyph glyph-name="pt-male" unicode="&#58986;" d="M768 896H256C114.6 896 0 781.4 0 640v-512c0-141.4 114.6-256 256-256h512c141.4 0 256 114.6 256 256V640C1024 781.4 909.4 896 768 896z m192-768c0-105.9-86.1-192-192-192H256c-105.9 0-192 86.1-192 192V640c0 105.9 86.1 192 192 192h512c105.9 0 192-86.1 192-192v-512zM822.3 711.6c-3.9 1.6-8.1 2.4-12.2 2.4H554c-17.7 0-32-14.3-32-32s14.3-32 32-32h178.8L606.4 523.6c-0.8-0.8-1.1-1.8-1.8-2.6-100.4 78.3-245.2 72.4-337.6-20-100-100-100-262.1 0-362 100-100 262.1-100 362 0 92.5 92.4 98.4 237.2 20 337.6 0.9 0.7 1.9 1 2.7 1.7L778 604.8V426c0-17.7 14.3-32 32-32s32 14.3 32 32V682c0 4.2-0.8 8.3-2.4 12.2-3.3 8-9.5 14.2-17.3 17.4"  horiz-adv-x="1024" />

    
    <glyph glyph-name="pt-order" unicode="&#58987;" d="M350.465775 896C298.270872 896 255.975002 852.904209 255.975002 799.909384V640.024998H99.790255C44.695635 640.024998 0 596.529245 0 542.734499v-573.34401c0-53.694756 44.695635-97.290499 99.790255-97.290499H255.975002l43.295772-0.09999h630.138463c52.194903 0 94.490772 42.995801 94.490773 95.990626v831.918758c0 52.994825-42.29587 96.090616-94.490773 96.090616h-578.943462zM255.975002-63.806269H99.790255C80.092178-63.806269 63.993751-48.907724 63.993751-30.609511V542.734499c0 18.398203 16.098428 33.296748 35.796504 33.296748H255.975002v-639.837516zM959.906259-31.909384c0-17.598281-13.698662-31.996875-30.497022-31.996875H319.968753V799.909384c0 17.698272 13.698662 32.096866 30.497022 32.096865h578.843472c16.79836 0 30.497022-14.398594 30.497022-32.096865V-31.909384zM383.962504 256.062494v63.993751h511.950005v-63.993751H383.962504z m0-191.981252v63.993751h511.950005v-63.993751H383.962504z m447.356313 447.956254l0.599941 127.987502H448.556196l-0.599942-127.987502h383.362563zM440.856948 704.018748H838.918074c31.496924 0 56.994434-28.597207 56.994435-64.093741v-128.087491c0-35.296553-25.49751-63.89376-56.994435-63.893761H440.856948c-31.496924 0-56.894444 28.597207-56.894444 63.893761V639.925007c0 35.496534 25.39752 64.093741 56.894444 64.093741z"  horiz-adv-x="1024" />

    
    <glyph glyph-name="pt-profile" unicode="&#58988;" d="M907 773.4H477.9C477.9 841.1 425.4 896 360.8 896H117.1C52.5 896 0 841.1 0 773.4v-778.8C0-73.2 52.5-128 117.1-128H907c64.6 0 117 54.8 117 122.6V650.8c0 67.7-52.4 122.6-117 122.6zM117.1 832h243.7c26.5 0 48.8-26.9 48.8-58.6H68.3c0 31.7 22.3 58.6 48.8 58.6z m838.6-837.4c0-31.7-22.3-58.6-48.7-58.6H117.1c-26.5 0-48.8 26.9-48.8 58.6V709.4H907c26.4 0 48.7-26.9 48.7-58.6v-656.2zM796.6 278c24.5 23.1 39.7 54.9 39.7 90 0 70.6-61.2 128-136.5 128s-136.5-57.4-136.5-128c0-35.1 15.2-66.9 39.7-90-54.2-31-90.9-86.3-90.9-150h68.3c0 61.8 53.6 112 119.5 112s119.5-50.2 119.5-112h68.3c-0.3 63.7-36.9 119-91.1 150m-96.9 26c-37.6 0-68.3 28.7-68.3 64s30.7 64 68.3 64c37.6 0 68.3-28.7 68.3-64s-30.7-64-68.3-64M136.5 128v64h307.2v-64H136.5z m0 128v64h307.2v-64H136.5z m0 128v64h307.2v-64H136.5z"  horiz-adv-x="1024" />

    
    <glyph glyph-name="pt-schedule" unicode="&#58989;" d="M832 832h-69.9C748.9 869.2 713.7 896 672 896H352c-41.7 0-76.9-26.8-90.1-64H192c-70.7 0-128-57.3-128-128v-704c0-70.7 57.3-128 128-128h640c70.7 0 128 57.3 128 128V704c0 70.7-57.3 128-128 128z m-480 0h320c17.6 0 32-14.3 32-32s-14.4-32-32-32H352c-17.6 0-32 14.3-32 32s14.4 32 32 32z m544-832c0-35.3-28.7-64-64-64H192c-35.3 0-64 28.7-64 64V704c0 35.3 28.7 64 64 64h69.9c13.2-37.2 48.4-64 90.1-64h320c41.7 0 76.9 26.8 90.1 64H832c35.3 0 64-28.7 64-64v-704zM640 224v-128h128V224H640z m-64-0.6c0 35.7 28.4 64.6 64.6 64.6h126.8c35.7 0 64.6-28.4 64.6-64.6v-126.8c0-35.7-28.4-64.6-64.6-64.6H640.6c-35.7 0-64.6 28.4-64.6 64.6V223.4z m-320 0.6v-128h128V224H256z m-64-0.6c0 35.7 28.4 64.6 64.6 64.6h126.8c35.7 0 64.6-28.4 64.6-64.6v-126.8c0-35.7-28.4-64.6-64.6-64.6H256.6c-35.7 0-64.6 28.4-64.6 64.6V223.4zM640 544v-128h128V544H640z m-64-0.6c0 35.7 28.4 64.6 64.6 64.6h126.8c35.7 0 64.6-28.4 64.6-64.6v-126.8c0-35.7-28.4-64.6-64.6-64.6H640.6c-35.7 0-64.6 28.4-64.6 64.6V543.4z m-320 0.6v-128h128V544H256z m-64-0.6c0 35.7 28.4 64.6 64.6 64.6h126.8c35.7 0 64.6-28.4 64.6-64.6v-126.8c0-35.7-28.4-64.6-64.6-64.6H256.6c-35.7 0-64.6 28.4-64.6 64.6V543.4z"  horiz-adv-x="1024" />

    
    <glyph glyph-name="pt-settings" unicode="&#58990;" d="M704 384c0-106.1-85.9-192-192-192s-192 85.9-192 192 85.9 192 192 192 192-85.9 192-192z m-64 0c0 70.7-57.3 128-128 128s-128-57.3-128-128 57.3-128 128-128 128 57.3 128 128z m20.7 448l150.7-90.4c-14.7-26.4-23.7-56.5-23.7-89.1 0-98.8 77.1-178.9 172.3-178.9v-179.3c-95.2 0-172.3-80.1-172.3-178.9 0-32.6 9-62.8 23.7-89L660.7-64c-29.8 53.4-84.9 89.8-148.7 89.8S393.2-10.6 363.4-64l-150.7 90.4c14.7 26.2 23.7 56.5 23.7 89 0 98.8-77.2 178.9-172.4 178.9V473.6c95.2 0 172.4 80.1 172.4 178.9 0 32.6-9 62.7-23.7 89.1L363.4 832c29.8-53.5 84.9-89.8 148.6-89.8S630.8 778.6 660.7 832M363.3 896c-10.9 0-21.9-2.8-31.9-8.9L180.7 797.2c-14.7-8.8-25.5-23.3-29.8-40.2-4.4-16.9-2.1-35 6.4-50.1 10-18 15.1-36.6 15.1-55.6 0-61.8-48.6-112-108.4-112-35.3 0-64-29.6-64-66.1v-178.4c0-36.6 28.7-66.1 64-66.1 59.7 0 108.4-50.2 108.4-111.9 0-19-5.1-37.7-15.1-55.5-8.5-15.2-10.8-33.3-6.5-50.2 4.4-17 15.2-31.4 29.9-40.2l150.7-90c10-6 21.1-8.8 31.9-8.8 22.1 0 43.6 11.8 55.4 32.9 19.8 35.4 54.7 56.5 93.2 56.5 38.6 0 73.4-21.1 93.2-56.4 11.9-21.2 33.3-33 55.4-33 10.9 0 21.9 2.8 32 8.8l150.7 90c14.7 8.8 25.4 23.2 29.8 40.2 4.4 16.9 2.1 35-6.5 50.2-10 17.8-15 36.5-15 55.5 0 61.7 48.6 111.9 108.3 111.9 35.3 0 64 29.6 64 66.1V473.1c0 36.6-28.7 66.1-64 66.1-59.7 0-108.3 50.2-108.3 112 0 19 5.1 37.6 15.1 55.6 8.5 15.1 10.8 33.3 6.4 50.1-4.4 16.9-15.1 31.4-29.8 40.2l-150.5 90c-10.1 6-21.1 8.9-32 8.9-22.1 0-43.5-11.8-55.4-33-19.8-35.2-54.7-56.4-93.2-56.4S438.6 827.8 418.8 863c-11.9 21.2-33.4 33-55.5 33"  horiz-adv-x="1024" />

    
    <glyph glyph-name="pt-sign" unicode="&#58991;" d="M800 128H608c-17.7 0-32 14.3-32 32s14.3 32 32 32h192c17.7 0 32-14.3 32-32s-14.3-32-32-32zM160 576h192c17.7 0 32-14.3 32-32s-14.3-32-32-32H160c-17.7 0-32 14.3-32 32 0 17.6 14.3 32 32 32zM128 672c0 17.7 14.3 32 32 32h320c17.7 0 32-14.3 32-32s-14.3-32-32-32H160c-17.7 0-32 14.3-32 32zM448 32c0 17.7 14.3 32 32 32h320c17.7 0 32-14.3 32-32s-14.3-32-32-32H480c-17.6 0-32 14.3-32 32zM928 448c17.7 0 32-14.3 32-32v-512c0-17.7-14.3-32-32-32H32c-17.7 0-32 14.3-32 32V800c0 17.7 14.3 32 32 32h384c17.7 0 32-14.3 32-32s-14.3-32-32-32H64v-832h832V416c0 17.6 14.4 32 32 32zM995.9 867.8C977.8 886 953.7 896 928 896c-25.6 0-49.7-10-67.9-28.3l-45.2-45.2c-16.9-16.9-26.4-39.1-27.6-62.8-23.8-1.2-46-10.7-63-27.7L317.1 324.8c-18.2-18.1-28.2-42.2-28.2-67.9 0-25.6 10-49.7 28.2-67.8 18.1-18.2 42.2-28.2 67.8-28.2 25.7 0 49.7 10 67.9 28.2l407.4 407.3c16.9 16.9 26.5 39.2 27.7 62.9 23.6 1.2 45.8 10.6 62.8 27.6l45.2 45.2c18.1 18.1 28.1 42.2 28.1 67.9 0 25.6-10 49.7-28.1 67.8zM814.8 641.5L407.6 234.3c-6.3-6.3-14.5-9.4-22.7-9.4s-16.4 3.1-22.6 9.4c-12.5 12.5-12.5 32.7 0 45.2l407.2 407.2c6.3 6.3 14.5 9.4 22.7 9.4s16.4-3.1 22.6-9.4c12.6-12.4 12.6-32.6 0-45.2z m135.9 135.8l-45.2-45.2c-6.3-6.3-14.5-9.4-22.7-9.4-8.1 0-16.3 3.1-22.6 9.4-12.5 12.5-12.5 32.7 0 45.2l45.2 45.2c6.3 6.3 14.5 9.4 22.6 9.4 8.2 0 16.4-3.1 22.7-9.4 12.4-12.4 12.4-32.7 0-45.2z"  horiz-adv-x="1024" />

    
    <glyph glyph-name="pt-team" unicode="&#58992;" d="M818.5 436.4L654.9 603.7c-0.3 0.4-0.6 0.7-1 1.1-18 17.5-46.8 17-64.4-1.1l-59.8-61.2-62.6 64.1-1 1c-18 17.5-46.9 17.1-64.4-1L205.5 405.9c-18-18.6-18-48.3 0-66.9l261.6-267.7c0.4-0.4 0.7-0.8 1.1-1 18-17.5 46.8-17 64.3 1l196.2 200.8c5.2 5.3 8.5 11.6 10.7 18.4l0.9-0.9 78.1 79.9c18.1 18.5 18.1 48.5 0.1 66.9M679.7 288.8L672 281 571.8 383.6l-0.3 0.3c-4.5 4.3-11.7 4.2-16.1-0.3L539 366.9c-4.5-4.7-4.5-12 0-16.7l100.3-102.7-25.1-25.7-111.7 114.5-0.3 0.3c-4.5 4.4-11.7 4.2-16.1-0.3l-16.4-16.7c-4.5-4.7-4.5-12 0-16.8l111.9-114.5-25.2-25.7L433.1 289l-0.3 0.3c-4.5 4.4-11.7 4.2-16.1-0.3l-16.4-16.7c-4.5-4.7-4.5-12.1 0-16.7l123.5-126.3-7.6-7.8c-0.2-0.2-0.4-0.3-0.6-0.5-9-8.7-23.4-8.4-32.1 0.5L254.6 355.6c-9 9.3-9 24.1 0 33.5l163.5 167.3 0.6 0.6c9 8.7 23.4 8.4 32.1-0.6l228.9-234.2c9.1-9.3 9.1-24.2 0-33.4m89.7 97.4l-43.5-44.4-163.5 167.3 43.5 44.4 0.6 0.6c9 8.7 23.4 8.4 32.1-0.6l130.8-133.8c9-9.3 9-24.1 0-33.5m-11.1-368.7c10.9-18.6 25.4-34.8 43.1-47.7-80.5-61.2-180.5-97.8-289.4-97.8s-208.9 36.6-289.5 97.7c17.7 13 32.2 29.1 43.1 47.7 69.1-51 154.1-81.5 246.3-81.5 92.4 0.1 177.4 30.6 246.4 81.6zM48.1 236.4l-1.2-0.9c-9.3 37.4-14.8 76.3-14.8 116.5 0 209 133.9 386.4 320.4 452.2-0.1-1.5-0.4-2.9-0.4-4.2 0-21.2 4.3-41.3 11.8-59.9C207.5 680.3 96.1 529.1 96.1 352c0-33.4 4.4-65.8 11.8-96.8-21-2.7-41.5-8.2-59.8-18.8zM672 800c0 1.3-0.4 2.8-0.4 4.2C858.1 738.4 992 561 992 352c0-40.3-5.5-79.1-14.8-116.5-0.4 0.3-0.7 0.6-1.2 0.8-18.4 10.6-38.9 16.1-59.9 18.8 7.6 31.2 11.9 63.6 11.9 96.9 0 177.2-111.5 328.4-267.9 388.2 7.6 18.5 11.9 38.7 11.9 59.8zM512 832c17.6 0 32-14.4 32-32s-14.4-32-32-32-32 14.4-32 32 14.4 32 32 32z m0 64c-53 0-96-43-96-96s43-96 96-96c53.1 0 96 43 96 96S565 896 512 896M127.9 129.9c11.6 0 22-6 27.8-16.1 5.7-10 4.5-19.5 3.1-24.3-1.2-4.7-4.9-13.6-14.9-19.4-4.9-2.9-10.2-4.4-15.9-4.4-9 0-20.9 4.2-27.8 16.1-8.8 15.2-3.5 34.9 11.7 43.6 5 3 10.4 4.5 16 4.5m0 64c-16.3 0-32.8-4.1-47.9-12.9-45.9-26.6-61.6-85.3-35.1-131.1 17.7-30.8 50-48.1 83.2-48.1 16.3 0 32.8 4.2 47.9 13 45.9 26.5 61.6 85.1 35.1 131-17.8 30.8-50 48.1-83.2 48.1m768.2-64c5.6 0 10.9-1.5 15.8-4.2 15.3-8.9 20.5-28.5 11.8-43.8-5.8-10.1-16.1-16.1-27.8-16.1-5.6 0-10.9 1.5-15.9 4.4-15.2 8.9-20.5 28.4-11.7 43.6 6.8 11.8 18.8 16.1 27.8 16.1m0 64c-33.2 0-65.5-17.3-83.3-48.1-26.5-45.9-10.8-104.5 35.1-131 15.1-8.8 31.6-13 47.9-13 33.2 0 65.5 17.3 83.2 48.1 26.5 45.9 10.8 104.5-35.1 131.1-15.1 8.8-31.5 12.9-47.8 12.9"  horiz-adv-x="1024" />

    
    <glyph glyph-name="pt-tel" unicode="&#58993;" d="M721.3 725.2c-2.1 0.1-4 0.1-6 0.1-22.8 0-47.4-7.4-65.6-19.9-37.9-25.9-66.3-64.1-84.5-113.6-12.1-33-3.5-65.2 22.9-86 3.1-2.4 5.6-5.3 8.4-8 2.3-2.3 4.5-4.7 6.8-6.9 4.5-4.4 6.9-7.1 8.1-8.7-0.5-1.9-1.6-5.3-4-10.8-15.3-35-39.8-68.5-77.1-105.1-37.2-37.8-70.6-62.3-105.6-77.6-5.5-2.4-8.9-3.5-10.8-4.1-1.6 1.3-4.4 3.6-8.7 8.1-2.3 2.4-4.7 4.7-7.1 7-2.7 2.7-5.5 5.2-7.9 8.2-14.3 18.2-34.5 28.3-56.7 28.3-9.5 0-19.2-1.8-29.1-5.5-49.6-18.2-87.8-46.6-113.7-84.5-13.5-19.8-21.1-47.2-19.8-71.3 4.1-72.9 73.2-132.3 154.2-132.3 62.5 1.9 123.3 29.8 163.6 52.9 62.8 35.9 122 81.8 176 136.3 54.2 53.7 100.1 112.9 136 175.6 23 40.2 50.9 101.1 52.8 162.3 0 82.2-59.3 151.3-132.2 155.5z m42.2-296.5c-35.7-62.4-79.4-117.5-129.3-166.8-49.4-49.8-104.4-93.6-166.9-129.3-47.5-27.2-98-45.8-142.3-47.2-60.2 0-108.8 43.1-111.6 92-0.8 14.8 4.1 32.6 12.4 44.9 22.7 33.2 55.5 54.7 93.1 68.5 5 1.8 9.8 2.9 14.5 2.9 8.7 0 16.6-3.6 23.3-12.2 5.3-6.7 11.9-12.3 17.8-18.4 14.2-14.7 24.4-21.5 37.5-21.5 8.2 0 17.5 2.8 29.6 8 46.2 20.1 84.1 51.1 118.6 86.3 35.2 34.6 66.2 72.4 86.3 118.6 13.5 31.1 10.5 43.9-13.5 67.1-6.1 5.9-11.7 12.5-18.4 17.7-13.2 10.4-14.5 23.5-9.3 37.8 13.8 37.6 35.3 70.4 68.5 93.1 11.3 7.7 27.4 12.5 41.5 12.5 1.2 0 2.3 0 3.4-0.1 48.9-2.8 91.9-51.4 92-111.5-1.4-44.3-20-94.9-47.2-142.4zM512 896C229.2 896 0 666.8 0 384s229.2-512 512-512 512 229.2 512 512S794.8 896 512 896z m0-981.3C252.8-85.3 42.7 124.8 42.7 384S252.8 853.3 512 853.3 981.3 643.2 981.3 384 771.2-85.3 512-85.3z"  horiz-adv-x="1024" />

    
    <glyph glyph-name="pt-warn" unicode="&#58994;" d="M512 896C229.2 896 0 666.8 0 384s229.2-512 512-512 512 229.2 512 512S794.8 896 512 896m-2.1-896c-54.4 5.8-84.4 32.9-90.1 81.5 5.7 54.3 35.7 84.3 90.1 90.1 57.2-5.8 88.6-35.8 94.4-90.1-5.8-48.6-37.3-75.7-94.4-81.5M600 587.8c-2.9-14.3-4.3-24.4-4.3-30l-51.5-317.5h-64.4l-51.5 317.5c0 5.7-1.5 15.7-4.3 30-2.9 28.6-4.3 48.6-4.3 60.1 0 80.1 30 120.2 90.1 120.2 62.8 0 94.4-40.1 94.4-120.2 0.1-11.5-1.4-31.5-4.2-60.1"  horiz-adv-x="1024" />

    
    <glyph glyph-name="pt-wechat" unicode="&#58995;" d="M844 896H180C80.6 896 0 815.4 0 716v-664c0-99.4 80.6-180 180-180h664c99.4 0 180 80.6 180 180V716c0 99.4-80.6 180-180 180z m-20.6-689.9c-66.8-76.7-151.4-119.9-252-133-61.6-8-122.2-4.1-182.3 12.2-9.7 2.6-22.8 1.1-31.8-3.6-26.2-13.5-50.6-30.1-76.6-44-7.3-3.9-17.4-2.7-26.2-3.8-0.4 8.3-2.4 16.9-0.7 24.8 4 18.4 9.5 36.4 14.9 54.5s0.2 30.5-15.2 42.5c-61.5 48-103.8 109.1-119.1 186.5-17.8 90.2 1.8 172.6 58.7 244.5 75.3 95.1 176.9 140.5 296.3 146.6 117.1 6 221.2-28.1 308.1-108.9 9.3-8.7 17.2-18.9 28.7-31.7-43.6-20.9-83.2-40.4-123.2-58.9-75.4-34.9-151.1-69.3-226.7-103.7-11.2-5.1-23.5-8.1-34.5-13.7-22.5-11.5-40.2-4.7-57.7 11-18.4 16.5-37.8 31.9-57.8 46.4-4.8 3.5-16.2 4.5-19.9 1.3-4-3.5-5.4-14.5-3-20 23.4-53.4 47.6-106.4 72.2-159.2 5.5-11.7 20.3-13.8 35.4-4.9 53.9 31.6 107.7 63.4 161.3 95.6 86.4 52 172.5 104.4 258.8 156.5 21.8 13.1 21.9 12.8 33.8-9.4 53.8-101.3 36.5-238-41.5-327.6z"  horiz-adv-x="1024" />

    


  </font>
</defs>
</svg>
